<svg version="1.0" xmlns="http://www.w3.org/2000/svg"
 width="450.000000pt" height="305.000000pt" viewBox="0 0 450.000000 305.000000"
 preserveAspectRatio="xMidYMid meet">
<metadata>
Created by potrace 1.10, written by Peter Selinger 2001-2011
</metadata>
<g transform="translate(0.000000,305.000000) scale(0.100000,-0.100000)"
fill="#F28C28" stroke="none">
<path d="M751 2827 c-24 -62 -34 -163 -33 -322 0 -152 3 -179 26 -258 51 -173
160 -350 277 -448 98 -81 163 -117 467 -254 272 -122 432 -220 614 -377 l57
-49 123 94 c68 52 150 112 184 135 71 47 284 158 392 203 344 143 496 251 612
434 93 147 135 288 146 486 9 160 -25 379 -60 379 -7 0 -22 -24 -35 -54 -31
-75 -127 -218 -199 -296 -72 -79 -205 -176 -317 -231 l-81 -41 -105 35 c-239
81 -354 97 -666 97 -290 0 -449 -25 -649 -101 l-80 -30 -77 35 c-222 101 -397
263 -511 475 -60 110 -72 123 -85 88z m2630 -566 c-29 -56 -128 -178 -197
-240 -74 -68 -151 -118 -334 -216 -210 -112 -329 -194 -452 -313 -60 -58 -111
-103 -113 -100 -8 8 100 156 153 211 93 96 226 188 468 322 214 119 271 159
379 270 55 57 103 103 108 104 4 1 -2 -16 -12 -38z m-2400 3 c13 -15 70 -68
125 -119 101 -91 132 -111 414 -265 169 -93 254 -154 356 -255 84 -83 174
-202 174 -229 0 -6 -24 14 -53 46 -117 126 -338 279 -607 418 -112 58 -193
116 -266 192 -65 67 -152 176 -175 220 -14 27 4 22 32 -8z m1109 -165 c35 -5
87 -22 114 -37 95 -52 161 -171 154 -278 l-3 -47 -38 56 c-102 148 -277 249
-459 264 -38 3 -71 9 -73 13 -4 7 53 25 105 33 51 8 137 7 200 -4z"/>
<path d="M1036 1637 c-95 -162 -113 -389 -44 -558 56 -137 175 -273 301 -343
165 -93 428 -102 603 -22 30 14 54 29 54 34 0 5 -14 39 -30 76 -73 160 -57
275 44 332 l38 21 -44 35 c-119 96 -273 182 -523 291 -94 41 -216 97 -272 126
l-102 51 -25 -43z m209 -223 l53 -17 4 -76 c6 -93 34 -158 98 -221 73 -74 126
-95 249 -97 57 -1 107 -6 111 -10 12 -14 31 -93 25 -103 -22 -36 -208 -43
-305 -10 -197 66 -320 231 -320 431 0 65 12 119 26 119 4 0 31 -7 59 -16z
m226 -114 c40 -83 77 -112 145 -118 32 -3 72 1 95 8 40 14 89 3 89 -19 0 -5
-26 -22 -57 -38 -106 -52 -210 -31 -286 57 -33 39 -57 102 -57 150 0 16 5 21
23 18 16 -2 30 -19 48 -58z"/>
<path d="M3165 1623 c-49 -25 -151 -72 -225 -105 -290 -127 -476 -228 -562
-306 l-38 -35 38 -33 c22 -19 49 -56 62 -85 20 -47 21 -58 11 -108 -6 -30 -28
-88 -48 -129 -36 -72 -36 -75 -18 -89 39 -28 180 -65 272 -70 318 -20 581 150
691 445 36 98 42 240 14 350 -21 81 -78 203 -97 208 -5 2 -50 -18 -100 -43z
m-6 -230 c49 -177 -73 -405 -265 -495 -58 -27 -81 -32 -168 -36 -164 -6 -207
18 -173 101 l15 35 104 4 c123 5 173 24 248 94 66 62 97 129 106 225 l7 76 46
16 c66 22 69 21 80 -20z m-233 -74 c-8 -47 -46 -127 -73 -151 -10 -9 -45 -29
-76 -44 -49 -22 -67 -25 -110 -20 -53 7 -138 44 -144 62 -8 23 79 45 92 24 11
-17 128 -12 155 7 39 27 68 65 81 103 16 48 27 60 57 60 23 0 24 -2 18 -41z"/>
<path d="M1965 1099 c-34 -31 -35 -32 -35 -109 0 -71 4 -85 40 -156 55 -110
175 -298 192 -302 16 -3 72 80 157 233 106 190 114 255 40 328 -34 34 -43 38
-80 35 -62 -4 -75 -29 -95 -175 -10 -67 -20 -120 -24 -118 -4 2 -13 46 -19 97
-7 51 -17 110 -22 130 -19 73 -92 91 -154 37z"/>
</g>
</svg>
