<svg version="1.0" xmlns="http://www.w3.org/2000/svg"
 width="300.000000pt" height="374.000000pt" viewBox="0 0 300.000000 374.000000"
 preserveAspectRatio="xMidYMid meet">
<g transform="translate(0.000000,374.000000) scale(0.050000,-0.050000)"
fill="#F28C28" stroke="none">
<path d="M1152 7364 c-65 -106 -63 -637 4 -825 148 -418 316 -578 886 -840
433 -199 524 -251 762 -432 233 -176 170 -178 429 15 137 103 307 206 462 280
135 65 357 172 493 237 505 243 720 583 721 1141 1 365 -47 529 -110 377 -103
-248 -379 -540 -636 -674 l-156 -81 -208 67 c-477 155 -1176 147 -1627 -16
l-136 -50 -92 39 c-263 113 -519 348 -678 620 -96 165 -98 168 -114 142z
m3451 -769 c-149 -235 -323 -389 -620 -548 -295 -157 -495 -291 -666 -447
-132 -120 -157 -137 -126 -83 120 206 372 413 769 633 267 148 422 258 559
398 126 129 141 137 84 47z m-3004 -120 c134 -127 223 -190 383 -273 416 -217
619 -367 777 -578 133 -176 127 -196 -14 -55 -138 138 -438 341 -725 491 -218
114 -498 361 -586 516 -55 97 -25 79 165 -101z m1452 -128 c118 -61 194 -180
204 -321 l8 -116 -38 60 c-123 192 -375 343 -611 365 -64 6 -109 18 -100 26
57 54 423 45 537 -14z"/>
<path d="M1488 5715 c-89 -193 -86 -525 6 -720 191 -404 677 -598 1113 -444
119 42 130 67 76 186 -85 189 -67 355 46 406 72 33 66 44 -74 143 -169 118
-304 191 -565 304 -121 53 -290 130 -375 173 -85 42 -158 77 -162 77 -4 0 -34
-56 -65 -125z m388 -370 c43 -258 201 -394 457 -394 132 0 146 -4 156 -44 6
-24 16 -57 22 -73 33 -86 -307 -94 -483 -11 -245 115 -410 452 -324 660 38 92
149 3 172 -138z m232 -21 c64 -127 234 -194 306 -122 27 27 111 3 101 -29 -11
-32 -135 -91 -196 -92 -138 -3 -319 170 -319 303 0 69 60 35 108 -60z"/>
<path d="M4390 5796 c-22 -13 -197 -94 -388 -179 -331 -148 -591 -289 -716
-388 l-56 -45 56 -44 c119 -94 131 -218 41 -412 -60 -131 -65 -118 68 -168
734 -276 1447 441 1133 1140 -55 124 -71 135 -138 96z m-74 -465 c-18 -343
-249 -558 -600 -560 -201 -1 -231 15 -204 111 18 63 19 63 158 66 268 7 440
158 468 410 11 102 16 110 82 133 99 34 106 23 96 -160z m-305 34 c-62 -249
-374 -379 -512 -214 -32 39 47 78 100 50 114 -62 247 -3 310 138 45 99 125
120 102 26z"/>
<path d="M2741 5071 c-98 -104 11 -434 233 -709 l39 -48 83 132 c233 369 274
514 175 621 -120 129 -212 52 -241 -203 -18 -156 -27 -148 -61 46 -37 218
-120 276 -228 161z"/>

<!-- Leftwing -->
<path classname='wing-left' d="M1080 4890 c-481 -96 -759 -359 -913 -860 -40 -128 -47 -738 -12
-960 42 -271 227 27 335 540 110 520 357 1010 509 1010 32 0 27 -8 -60 -102
-184 -199 -283 -499 -468 -1420 -151 -746 -180 -1078 -98 -1078 114 0 272 307
355 690 77 352 93 406 147 486 45 65 50 98 60 350 14 344 36 317 52 -66 19
-423 123 -1030 212 -1230 35 -79 348 -430 383 -430 10 0 18 18 18 39 0 34 34
22 260 -93 144 -72 265 -128 270 -123 5 5 -50 97 -121 204 -756 1130 -889
1821 -497 2586 120 233 126 259 68 277 -51 16 -83 -3 -202 -120 -120 -118
-128 -86 -28 113 116 231 78 257 -270 187z M824 2682 c-109 -492 -118 -997 -20 -1195 59 -120 138 4 153 241 l11
162 25 -196 c35 -273 153 -519 234 -488 76 29 45 338 -86 874 -65 267 -139
597 -164 733 -25 136 -51 247 -57 247 -7 0 -50 -170 -96 -378z  M1342 1727 c158 -453 638 -1290 728 -1271 33 7 21 551 -17 754 -70
375 -65 361 -184 429 -132 74 -173 78 -160 16 32 -151 71 -363 70 -382 0 -13
-26 31 -57 97 -50 110 -399 571 -444 587 -10 3 19 -100 64 -230z"/>
<!-- right wing -->
<path classname='wing-right' d="M4608 4892 c-8 -20 12 -81 47 -148 107 -204 104 -278 -6 -163 -235
245 -298 167 -133 -165 344 -695 259 -1375 -279 -2224 -163 -256 -163 -261 16
-145 117 76 138 84 143 54 7 -44 -108 -555 -148 -658 l-29 -73 11 110 c6 61
16 181 24 268 l12 158 -64 -38 c-177 -105 -249 -384 -275 -1070 -14 -378 -6
-402 100 -273 588 721 964 1924 1015 3255 6 143 35 -101 37 -302 1 -155 8
-202 38 -240 66 -86 81 -128 162 -477 100 -433 201 -657 325 -723 147 -79 118
280 -104 1292 -170 774 -254 1004 -436 1195 -82 86 -74 119 13 57 192 -137
318 -418 463 -1032 87 -369 207 -614 286 -584 42 16 82 424 68 706 -36 746
-436 1186 -1129 1242 -123 10 -146 7 -157 -22z M5042 2809 c-25 -139 -99 -463 -164 -722 -118 -471 -161 -858 -100
-896 67 -41 226 276 238 474 12 196 36 215 48 39 18 -242 113 -365 157 -201
97 359 82 709 -54 1307 -66 291 -71 291 -125 -1z"/>



<path d="M1693 4501 c-258 -286 -352 -940 -205 -1431 110 -365 369 -835 737
-1335 l99 -135 686 0 686 0 139 195 c390 547 560 846 676 1193 167 499 118
1081 -120 1437 -110 166 -149 171 -224 31 l-58 -106 -139 6 -140 6 -86 -131
c-93 -142 -107 -148 -213 -98 -73 35 -91 25 -173 -99 -8 -10 -36 -3 -66 17
-59 38 -56 40 -213 -105 l-70 -66 -106 120 c-116 132 -130 137 -203 80 l-50
-38 -113 111 -113 112 -70 -53 -70 -54 -64 112 c-46 80 -73 109 -97 102 -18
-5 -75 -16 -127 -23 l-95 -13 -48 109 c-64 144 -76 149 -160 56z"/>

<path d=""/>
</g>
</svg>
