 <svg  version="1.0" xmlns="http://www.w3.org/2000/svg"  width="300.000000pt" height="374.000000pt" viewBox="0 0 300.000000 374.000000"  preserveAspectRatio="xMidYMid meet">  <g transform="translate(0.000000,374.000000) scale(0.100000,-0.100000)" fill="#F28C28" stroke="none"> <path d="M576 3682 c-16 -26 -28 -158 -23 -251 7 -138 45 -246 120 -346 69 -92 137 -139 321 -222 215 -98 307 -150 416 -234 57 -45 102 -74 106 -68 3 6 52 44 107 86 94 70 161 106 457 245 196 93 291 196 356 388 32 97 21 410 -15 410 -4 0 -25 -34 -46 -76 -64 -125 -202 -256 -336 -317 -35 -16 -39 -16 -120 12 -140 47 -208 56 -414 56 -208 0 -278 -10 -412 -57 l-83 -28 -52 26 c-141 71 -246 169 -323 302 -26 45 -49 82 -51 82 -1 0 -5 -4 -8 -8z m89 -190 c62 -83 161 -164 261 -214 l81 -40 94 30 c145 46 225 57 414 56 186 -1 254 -11 392 -56 l91 -29 54 22 c115 49 216 130 296 238 63 84 72 82 72 -18 0 -104 -19 -190 -62 -281 -58 -120 -133 -192 -270 -258 -57 -28 -169 -82 -250 -121 -91 -44 -179 -95 -230 -134 -46 -35 -88 -66 -94 -70 -6 -3 -53 25 -105 64 -60 44 -153 99 -259 150 -91 45 -203 99 -249 122 -195 95 -310 285 -311 514 0 74 7 110 20 96 4 -4 28 -36 55 -71z"/> <path d="M2218 3291 c-87 -79 -133 -111 -243 -171 -240 -131 -395 -268 -420 -372 -10 -39 5 -35 35 9 79 117 193 209 405 327 66 37 144 86 173 109 52 40 152 144 152 160 0 21 -34 0 -102 -62z"/> <path d="M682 3333 c-15 -27 3 -70 61 -141 68 -84 135 -136 268 -208 128 -70 259 -158 339 -230 34 -30 65 -54 70 -54 12 0 40 29 40 41 0 25 -46 95 -103 155 -76 81 -147 133 -296 214 -138 74 -175 100 -264 179 -70 62 -99 74 -115 44z m107 -85 c63 -60 115 -98 187 -137 231 -126 308 -181 385 -273 105 -126 106 -153 3 -50 -78 77 -203 162 -355 243 -112 58 -199 132 -275 230 -43 57 -50 69 -38 69 4 0 45 -37 93 -82z"/> <path d="M2296 3284 c-60 -92 -161 -182 -265 -239 -222 -121 -265 -150 -366 -247 -82 -80 -96 -97 -77 -98 15 0 47 23 90 63 82 77 159 130 302 207 129 69 198 119 261 187 68 73 101 127 97 159 -3 26 -5 24 -42 -32z"/> <path d="M1264 3221 c-45 -27 -49 -39 -25 -65 14 -15 43 -27 89 -35 92 -17 168 -60 231 -131 29 -33 58 -60 65 -60 42 0 60 87 32 154 -20 47 -73 104 -120 129 -61 31 -228 37 -272 8z m278 -57 c24 -16 53 -48 65 -69 24 -46 41 -145 24 -145 -6 0 -11 7 -11 16 0 9 -30 46 -67 83 -77 76 -145 108 -250 118 -35 3 -63 9 -63 14 0 12 48 17 157 15 96 -1 104 -3 145 -32z"/> <path d="M744 2858 c-24 -53 -29 -78 -32 -163 -3 -83 0 -110 17 -156 45 -120 138 -216 251 -261 73 -28 229 -31 310 -6 83 27 83 27 55 82 -14 27 -27 64 -31 83 -10 52 12 111 47 131 16 10 29 20 29 24 0 16 -125 94 -245 153 -159 77 -366 175 -369 175 -2 0 -16 -28 -32 -62z m158 -43 c108 -53 114 -58 94 -74 -13 -11 -21 -8 -47 18 -42 42 -100 44 -126 4 -24 -36 -23 -130 1 -201 24 -69 100 -153 174 -189 50 -24 69 -28 148 -28 75 0 96 3 112 18 23 21 37 17 45 -14 7 -26 -38 -47 -121 -55 -166 -17 -322 68 -394 214 -31 62 -33 73 -33 172 0 104 18 180 44 180 5 0 51 -20 103 -45z m18 -76 c10 -5 16 -24 18 -53 2 -62 22 -106 68 -150 46 -45 126 -71 189 -61 l44 6 10 -38 c14 -49 5 -56 -73 -61 -200 -13 -366 159 -332 342 6 33 9 36 34 30 15 -4 34 -10 42 -15z m228 -38 c85 -43 88 -52 25 -66 -35 -7 -53 7 -111 84 l-24 31 25 -9 c14 -6 52 -24 85 -40z m-117 2 c8 -10 22 -34 33 -54 10 -20 29 -42 42 -48 32 -14 87 -14 101 0 13 13 63 4 63 -12 0 -20 -91 -52 -132 -46 -72 10 -138 82 -138 152 0 29 11 32 31 8z m245 -188 c-7 -18 -26 -20 -26 -2 0 18 24 41 28 27 2 -6 1 -17 -2 -25z"/> <path d="M2185 2893 c-16 -9 -107 -51 -202 -94 -157 -70 -284 -139 -344 -188 l-23 -19 31 -26 c59 -50 63 -126 12 -214 -10 -18 -19 -37 -19 -42 0 -15 113 -51 180 -57 141 -11 272 38 363 137 94 101 137 226 117 343 -10 65 -57 177 -74 177 -6 -1 -24 -8 -41 -17z m58 -98 c13 -37 16 -72 14 -135 -3 -72 -8 -95 -36 -149 -90 -175 -279 -254 -483 -200 -26 7 -38 15 -38 27 0 34 19 40 58 20 30 -16 52 -19 117 -15 97 4 157 32 226 102 68 69 93 124 97 218 4 71 2 81 -19 103 -32 34 -79 32 -122 -6 -30 -26 -36 -28 -47 -15 -10 12 3 21 82 59 51 24 102 44 113 43 14 -1 25 -16 38 -52z m-85 -115 c2 -62 -1 -81 -23 -126 -28 -58 -82 -111 -147 -146 -35 -19 -59 -23 -130 -23 -101 0 -116 8 -102 56 9 33 9 33 79 34 136 2 235 93 235 215 0 37 3 42 33 55 17 8 37 13 42 11 6 -1 11 -36 13 -76z m-240 8 c-13 -24 -34 -45 -49 -50 -31 -10 -84 6 -73 23 6 11 122 69 137 69 5 0 -2 -19 -15 -42z m77 -37 c-18 -56 -48 -85 -105 -102 -45 -14 -94 -6 -134 21 l-30 19 28 10 c18 8 33 8 46 1 54 -29 126 1 150 62 31 79 72 68 45 -11z m-245 -145 c-12 -12 -30 8 -30 33 0 11 5 10 20 -4 15 -13 17 -22 10 -29z"/> <path d="M1372 2537 c-17 -18 -22 -35 -22 -73 0 -51 32 -120 116 -251 l36 -57 19 25 c40 53 131 223 136 254 11 68 -24 125 -78 125 -37 0 -53 -34 -64 -132 -3 -38 -10 -68 -14 -68 -5 0 -11 32 -15 72 -8 93 -23 122 -61 126 -22 2 -37 -4 -53 -21z m67 -58 c6 -18 11 -41 11 -51 0 -34 31 -88 50 -88 27 0 39 22 55 95 16 77 20 83 43 69 34 -22 27 -71 -23 -158 -54 -94 -66 -108 -80 -98 -23 15 -98 156 -102 193 -10 70 25 98 46 38z"/> <path d="M539 2445 c-187 -37 -327 -138 -399 -289 -67 -140 -75 -180 -74 -361 1 -168 11 -294 25 -316 6 -10 12 -9 29 6 39 36 80 141 126 325 54 216 90 317 145 398 36 55 114 121 126 108 4 -3 -17 -31 -46 -61 -89 -94 -128 -203 -211 -590 -72 -337 -109 -578 -96 -629 9 -36 33 -32 73 10 60 64 96 155 138 357 26 120 53 198 74 211 7 4 11 39 11 85 0 102 11 231 20 231 4 0 10 -73 13 -162 9 -229 60 -539 105 -640 17 -37 179 -226 196 -227 4 -1 6 10 4 24 -3 14 -2 25 2 25 5 0 37 -16 72 -36 70 -40 189 -96 194 -91 2 2 -48 81 -111 177 -226 342 -298 534 -299 800 0 168 21 258 99 415 30 61 55 116 55 122 0 7 -12 16 -27 19 -23 6 -34 -1 -86 -55 -33 -34 -61 -60 -63 -58 -7 7 24 84 51 130 14 24 25 53 25 65 0 20 -5 22 -52 21 -29 0 -83 -7 -119 -14z m108 -42 c-3 -10 -15 -44 -27 -77 -19 -54 -20 -60 -5 -82 20 -31 36 -30 75 2 17 15 33 25 35 22 3 -2 -11 -40 -30 -84 -103 -239 -109 -479 -19 -743 43 -128 99 -237 198 -391 40 -63 70 -116 66 -118 -5 -2 -31 8 -59 22 -28 14 -64 26 -80 26 -23 0 -42 14 -95 71 -53 58 -70 84 -86 135 -40 130 -70 319 -90 574 -11 135 -25 180 -55 180 -27 0 -39 -44 -46 -167 -6 -103 -11 -128 -32 -165 -14 -24 -35 -86 -47 -138 -45 -197 -71 -282 -96 -326 -56 -96 -59 -67 -19 181 34 201 97 501 135 633 39 134 75 213 129 277 43 51 49 80 20 98 -39 25 -110 -23 -170 -116 -57 -87 -106 -233 -164 -487 -10 -41 -28 -95 -40 -120 l-23 -45 -8 30 c-14 54 -10 346 5 400 30 109 86 207 155 273 76 73 143 107 264 132 111 24 115 24 109 3z"/> <path d="M2300 2443 c0 -10 16 -49 35 -87 19 -37 35 -77 35 -89 0 -16 -8 -12 -48 25 -68 64 -90 74 -111 54 -15 -16 -14 -20 8 -59 98 -172 129 -275 138 -447 6 -131 -5 -220 -43 -342 -35 -112 -128 -301 -207 -423 -36 -55 -65 -101 -63 -102 4 -5 140 87 148 100 20 32 15 -16 -17 -159 -46 -207 -54 -234 -65 -234 -5 0 -7 15 -4 32 18 119 31 234 28 237 -5 6 -68 -36 -92 -62 -19 -20 -28 -53 -48 -178 -27 -165 -45 -489 -27 -489 50 0 299 429 373 645 93 269 170 680 170 905 0 37 3 88 6 114 12 84 24 28 24 -110 0 -124 1 -132 25 -165 29 -38 42 -81 81 -254 14 -66 36 -146 49 -177 46 -113 121 -194 146 -157 25 35 -11 279 -97 666 -79 360 -121 474 -209 571 -51 57 -54 77 -6 43 47 -34 100 -100 131 -166 31 -64 85 -242 120 -394 34 -145 91 -261 129 -261 15 0 20 17 31 129 15 148 9 315 -15 406 -43 160 -149 303 -272 368 -76 39 -224 77 -302 77 -42 0 -51 -3 -51 -17z m200 -49 c192 -42 328 -181 387 -395 21 -76 26 -380 7 -413 -10 -16 -13 -14 -32 25 -12 24 -35 100 -51 169 -38 162 -86 310 -123 384 -38 75 -135 176 -169 176 -58 0 -64 -48 -13 -105 44 -50 95 -149 122 -240 45 -149 142 -601 168 -784 16 -114 9 -139 -24 -96 -31 39 -61 125 -89 255 -28 133 -59 227 -81 253 -11 12 -18 54 -24 145 -10 132 -24 176 -56 170 -29 -6 -39 -48 -51 -203 -42 -533 -172 -968 -390 -1302 -33 -51 -66 -93 -72 -93 -9 0 -10 26 -6 103 11 167 51 407 68 407 5 0 9 -38 9 -85 0 -75 2 -86 21 -95 15 -9 24 -8 35 0 18 16 57 140 85 274 19 90 20 110 9 130 -7 13 -21 26 -31 29 -16 4 -10 21 49 138 107 213 152 373 152 545 0 153 -34 304 -95 425 -14 29 -24 53 -22 55 2 2 19 -7 37 -21 30 -22 36 -23 54 -11 29 18 31 66 7 122 -12 26 -21 51 -21 56 0 9 33 5 140 -18z"/> <path d="M853 2257 c-55 -59 -109 -178 -132 -295 -18 -88 -14 -276 9 -368 47 -200 182 -456 382 -726 l50 -68 343 0 344 0 100 142 c240 346 325 528 351 758 24 209 -37 449 -141 561 -35 38 -45 33 -79 -42 l-25 -51 -50 5 c-27 3 -57 8 -66 12 -11 4 -28 -13 -62 -65 -26 -38 -54 -70 -62 -70 -8 0 -30 8 -49 17 -35 16 -35 16 -58 -12 -13 -16 -26 -33 -30 -39 -4 -7 -14 -4 -26 7 -10 9 -23 17 -28 17 -5 0 -34 -23 -64 -50 l-54 -50 -54 60 c-29 33 -58 60 -64 60 -5 0 -22 -9 -38 -20 l-27 -20 -52 55 c-29 30 -54 55 -57 55 -3 0 -20 -11 -39 -25 l-33 -26 -32 56 c-27 47 -36 56 -54 51 -11 -3 -40 -8 -63 -12 l-42 -6 -24 55 c-14 30 -29 57 -34 60 -6 4 -23 -8 -40 -26z m75 -104 c21 -23 28 -25 75 -19 52 7 53 7 82 -33 35 -48 56 -57 95 -41 27 11 32 9 78 -29 50 -43 70 -48 103 -30 18 9 28 3 74 -40 30 -28 63 -51 74 -51 11 0 40 18 66 40 37 32 51 38 75 34 20 -5 38 0 59 15 25 18 39 21 76 16 42 -7 47 -5 77 27 18 18 42 46 53 62 20 28 25 29 82 27 61 -2 61 -2 100 44 l39 46 20 -23 c30 -34 73 -138 90 -220 11 -53 15 -113 12 -218 -4 -135 -7 -152 -41 -252 -39 -116 -87 -217 -151 -318 -62 -99 -218 -324 -230 -332 -6 -4 -158 -8 -337 -8 l-326 0 -79 113 c-189 266 -305 504 -334 681 -14 88 -12 233 4 319 16 80 56 184 89 231 l21 29 15 -22 c9 -13 26 -34 39 -48z"/> <path d="M457 1530 c-4 -8 -25 -97 -47 -197 -36 -165 -40 -196 -40 -320 0 -192 30 -322 66 -293 23 20 44 102 44 172 0 107 17 79 22 -35 3 -92 7 -110 35 -168 39 -78 69 -111 83 -89 6 8 10 56 10 107 0 78 -9 126 -61 338 -33 136 -71 304 -84 374 -12 69 -25 119 -28 111z m23 -279 c0 -8 25 -115 55 -238 54 -220 64 -286 46 -297 -14 -9 -40 67 -47 141 -7 72 -25 113 -50 113 -20 0 -44 -59 -44 -110 0 -22 -4 -40 -9 -40 -29 0 -25 345 5 445 l18 59 13 -29 c6 -17 12 -36 13 -44z"/> <path d="M2530 1453 c-16 -102 -61 -301 -110 -489 -35 -133 -40 -164 -40 -262 0 -62 4 -112 9 -112 15 0 60 58 88 114 23 43 28 67 31 154 2 56 8 102 12 102 4 0 10 -40 13 -90 9 -137 53 -207 77 -122 44 158 39 364 -15 610 -21 94 -42 172 -45 172 -4 0 -13 -35 -20 -77z m56 -257 c18 -108 17 -327 -2 -346 -8 -8 -13 0 -18 32 -8 49 -30 88 -50 88 -21 0 -35 -40 -46 -129 -6 -49 -17 -95 -27 -110 l-18 -26 -3 50 c-3 44 50 277 119 529 15 53 24 36 45 -88z"/> <path d="M630 983 c0 -23 98 -271 142 -358 82 -164 241 -405 267 -405 19 0 10 271 -13 390 -36 187 -30 175 -103 215 -36 20 -67 34 -70 31 -4 -4 29 -174 43 -218 3 -10 1 -18 -4 -18 -5 0 -17 21 -27 48 -25 64 -49 100 -140 212 -93 115 -95 117 -95 103z m315 -227 c20 -30 53 -209 62 -328 5 -72 3 -88 -8 -88 -25 1 -177 259 -233 394 -14 34 -14 37 0 26 8 -8 33 -44 54 -81 44 -75 60 -86 85 -59 15 16 17 31 11 90 -8 75 1 89 29 46z"/> </g> </svg> 