<svg xmlns="http://www.w3.org/2000/svg" width="24.475" height="35.902" viewBox="0 0 24.475 35.902">
  <g id="Group_177" data-name="Group 177" transform="translate(-2964.016 -1200)">
    <path id="Path_109" data-name="Path 109" d="M2988.484,1217.986v5.591a12.226,12.226,0,0,1-24.336,1.763,14.178,14.178,0,0,1-.124-1.82q-.017-5.609,0-11.219a12.224,12.224,0,0,1,24.255-2.231,15.364,15.364,0,0,1,.2,2.324C2988.5,1214.258,2988.484,1216.122,2988.484,1217.986Zm-1.242-.066c0-1.6.013-3.191-.005-4.787a20.329,20.329,0,0,0-.127-2.477,10.981,10.981,0,0,0-21.848,1.638c0,3.74-.012,7.479.009,11.219a12.891,12.891,0,0,0,.2,2.213,10.982,10.982,0,0,0,21.768-2.179Q2987.243,1220.734,2987.242,1217.92Z" fill="#fff"/>
    <path id="Path_112" data-name="Path 112" d="M3102.634,1295.428c0,.779,0,1.557,0,2.336a2.459,2.459,0,1,1-4.917-.009q-.008-2.354,0-4.708a2.459,2.459,0,1,1,4.917.009C3102.638,1293.846,3102.634,1294.637,3102.634,1295.428Zm-3.678-.048c0,.779,0,1.559,0,2.339a1.217,1.217,0,1,0,2.432-.005q.008-2.32,0-4.64a1.218,1.218,0,1,0-2.433.005C3098.952,1293.845,3098.956,1294.613,3098.957,1295.38Z" transform="translate(-123.923 -83.939)" fill="#fff"/>
  </g>
</svg>
