<svg xmlns="http://www.w3.org/2000/svg" width="23.981" height="15.052" viewBox="0 0 23.981 15.052">
  <path id="Path_110" data-name="Path 110" d="M2979.38,1714.349q1.282-1.035,2.556-2.066l8.148-6.6c.076-.061.15-.124.229-.183a.63.63,0,0,1,.912.054.62.62,0,0,1-.125.9c-.742.613-1.493,1.214-2.241,1.819l-8.916,7.22c-.46.372-.67.374-1.122.009l-11.046-8.943a1.95,1.95,0,0,1-.219-.192.617.617,0,0,1-.038-.8.609.609,0,0,1,.819-.136c.2.134.386.3.575.45l10.25,8.3C2979.227,1714.235,2979.3,1714.285,2979.38,1714.349Z" transform="translate(-2967.387 -1705.329)" fill="#fff"/>
  <path id="Path_111" data-name="Path 111" d="M2979.393,1777.36l5.288-4.282,5.481-4.437c.047-.038.094-.078.142-.115a.626.626,0,1,1,.766.978c-.206.172-.416.339-.624.507l-10.45,8.461c-.525.425-.7.425-1.235-.008l-10.931-8.854a2.328,2.328,0,0,1-.276-.238.616.616,0,0,1,.773-.942,3.11,3.11,0,0,1,.348.265l10.449,8.462C2979.208,1777.225,2979.3,1777.288,2979.393,1777.36Z" transform="translate(-2967.395 -1763.738)" fill="#fff"/>
</svg>
